PathFileType  4	(X/Y/Z) C:\Users\antoi\Documents\MyRepositories\mobilecap\ResultsAnalysis
DataRate	CameraRate	NumFrames	NumMarkers	Units	OrigDataRate	OrigDataStartFrame	OrigNumFrames
100.0	100.0	4	51	mm	100.0	34	132
Frame#	Time	r_knee			r_shank_antsup			r_ankle			r_calc			r_5meta			r_toe			L_knee			L_shank_antsup			L_ankle			L_calc			L_5meta			L_toe			r_sh2			r_sh3			r_sh4			L_sh2			L_sh3			r_thigh1			r_thigh2			r_thigh3			r_thigh4			r_thigh5			L_thigh1			L_thigh2			L_thigh3			L_thigh4			r.ASIS			r.PSIS			L.ASIS			L.PSIS			C7			R_Shoulder			L_Shoulder			R_Sternum			L_Sternum			R_humerus			R_elbow_med			R_elbow_lat			R_forearm			R_wrist_radius			R_wrist_ulna			L_humerus			L_elbow_med			L_elbow_lat			L_forearm			L_wrist_radius			L_wrist_ulna			R_HJC			L_HJC			R_HJC_reg			L_HJC_reg			
		X1	Y1	Z1	X2	Y2	Z2	X3	Y3	Z3	X4	Y4	Z4	X5	Y5	Z5	X6	Y6	Z6	X7	Y7	Z7	X8	Y8	Z8	X9	Y9	Z9	X10	Y10	Z10	X11	Y11	Z11	X12	Y12	Z12	X13	Y13	Z13	X14	Y14	Z14	X15	Y15	Z15	X16	Y16	Z16	X17	Y17	Z17	X18	Y18	Z18	X19	Y19	Z19	X20	Y20	Z20	X21	Y21	Z21	X22	Y22	Z22	X23	Y23	Z23	X24	Y24	Z24	X25	Y25	Z25	X26	Y26	Z26	X27	Y27	Z27	X28	Y28	Z28	X29	Y29	Z29	X30	Y30	Z30	X31	Y31	Z31	X32	Y32	Z32	X33	Y33	Z33	X34	Y34	Z34	X35	Y35	Z35	X36	Y36	Z36	X37	Y37	Z37	X38	Y38	Z38	X39	Y39	Z39	X40	Y40	Z40	X41	Y41	Z41	X42	Y42	Z42	X43	Y43	Z43	X44	Y44	Z44	X45	Y45	Z45	X46	Y46	Z46	X47	Y47	Z47	X48	Y48	Z48	X49	Y49	Z49	X50	Y50	Z50	X51	Y51	Z51	

34	0.33000000	224.45393	487.00091	-64.08147	261.55708	439.95497	-80.43196	165.28029	88.98796	-122.12436	103.75090	58.71864	-170.95589	291.37787	35.59280	-88.02627	330.92283	62.13216	-143.38047	255.42178	502.14434	-344.98466	230.86475	421.72924	-353.59996	-29.97916	242.28808	-306.09197	-94.56242	253.03442	-245.02309	4.03593	116.19017	-348.52383	56.00035	94.51973	-305.41601	252.63698	327.82950	-100.47951	198.86851	434.87417	-35.60566	190.58082	319.44720	-41.91973	175.98294	492.49072	-353.81199	86.67710	409.76083	-346.18051	269.16021	791.35246	-110.80756	287.43825	680.74616	-111.24686	285.82145	657.40314	-47.63166	221.51925	780.52124	-10.20878	240.69503	668.36543	-14.39739	197.41008	813.50771	-359.66001	242.26083	678.81271	-370.41060	92.56611	776.62251	-345.91111	135.68506	649.24686	-331.48354	245.30839	959.37509	-76.06549	41.99539	994.91087	-121.53826	215.89714	943.15982	-308.45644	26.80998	990.60513	-218.80480	97.02223	1461.90023	-195.40968	172.50796	1428.45665	-39.35974	142.81279	1410.21534	-359.06884	209.19756	1363.82057	-187.92718	207.18707	1360.62628	-224.53677	166.05286	1190.61585	46.39327	94.99658	1105.01715	22.50636	132.72452	1104.65105	73.41025	197.66176	975.12397	83.25468	236.87184	878.12171	62.69054	204.12173	872.38209	96.99555	139.56260	1175.63802	-429.48024	93.53878	1072.13228	-382.53159	117.61720	1076.47373	-438.27369	187.19161	950.43248	-452.42211	228.09074	850.64434	-427.11751	195.44870	840.81120	-455.45011	164.79816	878.11342	-94.52954	126.58837	876.45400	-281.31668	171.84410	886.73064	-94.33708	147.96280	879.95878	-247.30870	
35	0.34000000	226.30917	487.08031	-62.68410	262.97820	439.79324	-78.84711	165.45957	89.17085	-122.17608	103.85373	58.90527	-171.03720	291.44098	35.57044	-87.85502	330.98828	61.99311	-143.25939	277.57429	506.94808	-342.67958	256.39314	425.14623	-351.89251	3.93425	233.21252	-306.23146	-62.23752	240.45102	-246.02623	45.85430	109.35129	-347.38187	98.46819	90.96912	-303.42349	253.49030	327.74235	-99.18989	199.80689	435.08810	-34.74008	190.82284	319.73611	-41.27770	198.03151	493.58073	-352.93840	112.77510	406.56637	-346.07151	279.10990	790.71619	-108.79349	294.59384	679.37534	-109.15382	291.52341	656.17458	-45.68705	229.87854	780.77124	-9.16568	246.09899	668.13938	-13.12893	213.36728	817.73202	-358.98077	261.14410	684.05422	-369.41197	108.90225	778.57154	-347.52711	154.60047	652.09012	-333.07746	256.46963	960.60656	-74.38230	53.76278	996.70652	-121.90376	229.30173	945.82497	-307.12824	39.36984	992.71718	-219.27400	109.90057	1463.80866	-194.87924	186.02239	1431.00472	-39.34847	155.34456	1411.89315	-358.62881	221.83714	1365.95331	-187.67815	219.99666	1362.72397	-224.16025	184.06708	1193.72734	47.34743	113.56144	1106.99069	25.65409	152.73816	1107.40781	75.64068	221.20195	979.41636	83.43321	262.42592	883.51174	61.52762	231.07448	876.76036	96.45258	148.72293	1176.96366	-428.84630	101.06901	1074.71129	-381.77983	125.16360	1078.53061	-437.50687	191.18371	950.87344	-452.47339	229.05063	849.67215	-427.84274	196.29829	841.10280	-456.39438	176.05910	879.56609	-94.17293	139.76465	878.95591	-281.35516	183.18696	888.54603	-93.51422	160.54848	882.27087	-246.68057	
36	0.35000000	227.89588	487.20981	-61.24166	264.12628	439.65008	-77.05951	165.61003	89.37265	-122.20682	103.88506	59.21048	-171.08224	291.53607	35.59433	-87.65177	331.02813	61.82575	-143.18137	299.04248	511.36324	-340.37579	281.49803	428.15370	-350.03760	38.63367	223.29087	-306.32211	-28.91981	226.85001	-247.04516	88.67354	102.13995	-345.96294	141.78716	87.30008	-301.13236	254.13279	327.67191	-97.68122	200.31725	435.37483	-33.95757	190.62516	320.08695	-40.71302	219.62387	493.74587	-352.39560	138.94687	402.37912	-346.32573	288.94453	789.97262	-106.80202	301.71029	677.97822	-107.05354	297.15730	654.97033	-43.78076	238.03190	780.94488	-8.13379	251.43468	667.89860	-11.89586	229.33383	821.57552	-358.27860	279.74382	688.93089	-368.35579	125.11639	780.51608	-349.30485	173.18951	654.82840	-334.76308	267.52481	961.54910	-72.79293	65.50034	998.27230	-122.37147	242.58537	947.96454	-305.87331	51.93885	994.50975	-219.83616	122.78178	1465.42141	-194.38155	199.47304	1433.20162	-39.33240	167.95572	1413.21561	-358.24328	234.54773	1367.75272	-187.37009	232.86280	1364.49650	-223.73842	202.03633	1196.62652	48.31780	132.16362	1108.70575	28.88717	172.77202	1109.98372	77.89468	244.71212	983.66640	83.60702	288.01647	888.95898	60.34251	257.96027	881.22483	95.96660	157.60957	1178.05316	-428.39592	108.40339	1077.00019	-381.15161	132.36455	1080.32754	-436.91995	195.02118	951.23098	-452.74146	230.24354	848.84191	-428.77869	197.25068	841.39790	-457.33469	187.21324	880.75284	-93.82483	152.82316	881.01796	-281.37213	194.36623	890.07126	-92.73467	173.02793	884.15051	-246.10622	
37	0.36000000	229.30920	487.38485	-59.81112	265.12030	439.50534	-75.19858	165.73511	89.58546	-122.21847	103.88223	59.59465	-171.10316	291.65409	35.64528	-87.43088	331.04897	61.62535	-143.15346	319.75601	515.33371	-338.14082	306.10613	430.78037	-348.06672	74.15668	212.68014	-306.32971	5.50723	212.40042	-248.00755	132.39060	94.77841	-344.30934	185.81208	83.67050	-298.63538	254.65149	327.59901	-96.06967	200.59446	435.70977	-33.25364	190.17878	320.47916	-40.22432	240.76376	492.96135	-352.13030	165.18918	397.27440	-346.82930	298.68027	789.07939	-104.89061	308.77955	676.51600	-105.00835	302.73093	653.75314	-41.95421	245.95126	781.03169	-7.11038	256.73126	667.60569	-10.71516	245.24857	825.03605	-357.56012	298.04492	693.40064	-367.24633	141.22563	782.39263	-351.13839	191.39327	657.41542	-336.45545	278.49661	962.18028	-71.31548	77.23154	999.57774	-122.90787	255.78639	949.59651	-304.72073	64.51345	995.99242	-220.46800	135.67111	1466.73744	-193.91623	212.85474	1435.02558	-39.30453	180.62010	1414.18998	-357.90629	247.34352	1369.20753	-187.01150	245.76138	1365.91191	-223.29833	219.94244	1199.28254	49.28478	150.81252	1110.13184	32.15906	192.79700	1112.34927	80.13975	268.15798	987.84832	83.76301	313.59439	894.43797	59.14106	284.74010	885.75195	95.51657	166.25116	1178.93652	-428.13029	115.61171	1078.99613	-380.62326	139.27484	1081.88734	-436.50340	198.75832	951.50126	-453.22686	231.71130	848.12056	-429.92461	198.32534	841.66499	-458.26808	198.29191	881.64682	-93.50802	165.77752	882.65658	-281.38949	205.43904	891.25474	-92.03275	185.41872	885.61017	-245.61945	
